PathFileType	4	(X/Y/Z)	./resultDataOpenSim/trcMotMarkerGrf/sub10/qtm-14-06.trc
DataRate	CameraRate	NumFrames	NumMarkers	Units	OrigDataRate	OrigDataStartFrame	OrigNumFrames
250.000000	250.000000	9	24	m	250.000000	123	488
Frame#	Time	L.Toe.Tip			R.Toe.Tip			L.Ankle.Lat			R.Ankle.Lat			L.Ankle.Med			R.Ankle.Med			L.Heel			R.Heel			L.Knee.Lat			R.Knee.Lat			L.Knee.Med			R.Knee.Med			L.Thigh.Upper			R.Thigh.Upper			L.ASIS			R.ASIS			V.Sacral			L.Acromium			R.Acromium			C7			L.Elbow			R.Elbow			L.Wrist.Lat			R.Wrist.Lat
		X1	Y1	Z1	X2	Y2	Z2	X3	Y3	Z3	X4	Y4	Z4	X5	Y5	Z5	X6	Y6	Z6	X7	Y7	Z7	X8	Y8	Z8	X9	Y9	Z9	X10	Y10	Z10	X11	Y11	Z11	X12	Y12	Z12	X13	Y13	Z13	X14	Y14	Z14	X15	Y15	Z15	X16	Y16	Z16	X17	Y17	Z17	X18	Y18	Z18	X19	Y19	Z19	X20	Y20	Z20	X21	Y21	Z21	X22	Y22	Z22	X23	Y23	Z23	X24	Y24	Z24

123	0.488	-0.0337219	0.12794367	-0.14169387	-0.6628847	0.03818624	-0.0188062	-0.16220451	0.090770871	-0.17755099	-0.80184422	0.059672688	0.019265586	-0.16743924	0.11974217	-0.096856876	-0.78019773	0.087366103	-0.064453958	-0.2044969	0.034196132	-0.13565672	-0.85473107	0.041287877	-0.030218253	-0.31622853	0.44564899	-0.20080665	-0.64735217	0.43665116	0.067788121	-0.31125633	0.42593542	-0.081217603	-0.63215282	0.43892896	-0.061947073	-0.44759743	0.81667699	-0.24823945	-0.5493134	0.83389504	0.12735503	-0.41467386	0.92552693	-0.17175971	-0.45332956	0.92465451	0.068181146	-0.62670407	0.93798918	-0.07795098	-0.51332303	1.3977108	-0.1968153	-0.51415832	1.3820899	0.12520719	-0.59662172	1.4157141	-0.037853463	-0.66430844	1.0967526	-0.25646939	-0.49602807	1.0261639	0.1952451	-0.62230299	0.87164718	-0.33994792	-0.2628036	0.93052145	0.18872642
124	0.492	-0.024358569	0.12886975	-0.14057331	-0.6628885	0.038249006	-0.018769621	-0.15247813	0.090967919	-0.17701976	-0.80166248	0.060181648	0.018882363	-0.15842893	0.11980066	-0.096402869	-0.77972012	0.087720196	-0.064772884	-0.19466065	0.033958244	-0.13567023	-0.85473235	0.042136124	-0.030536873	-0.30799237	0.44485039	-0.20009275	-0.64329484	0.43551212	0.067139375	-0.30500418	0.42507327	-0.080879228	-0.62722453	0.43767636	-0.06240337	-0.44064545	0.81465264	-0.24795166	-0.54559088	0.83256474	0.1273497	-0.40841286	0.92386627	-0.17134355	-0.44873041	0.92333752	0.068617244	-0.62053726	0.93690072	-0.078363918	-0.50719083	1.3960996	-0.19675232	-0.50815334	1.3804177	0.12514289	-0.59078956	1.4140656	-0.037940013	-0.65949932	1.0959089	-0.25650009	-0.48903794	1.024536	0.19583146	-0.61922747	0.87080443	-0.34039608	-0.25406959	0.93144493	0.1879984
125	0.496	-0.015653836	0.12906063	-0.13957683	-0.66286663	0.038294358	-0.018769795	-0.14355923	0.090821599	-0.17650032	-0.80150758	0.060772875	0.01841423	-0.15005881	0.11952279	-0.095966238	-0.77916662	0.088106371	-0.065155843	-0.18573798	0.033513954	-0.1354512	-0.85457899	0.043055844	-0.031122778	-0.30059481	0.44456459	-0.19994857	-0.63911638	0.43433751	0.066457345	-0.29847402	0.4244261	-0.08050666	-0.62226411	0.43635619	-0.062889475	-0.43371558	0.81253011	-0.24765813	-0.54221767	0.83126354	0.12785129	-0.40234251	0.92222518	-0.17064928	-0.444052	0.92204151	0.069060201	-0.61436789	0.93580726	-0.078782675	-0.50102231	1.3944928	-0.19672838	-0.50210192	1.378757	0.12502964	-0.58493054	1.412439	-0.038061669	-0.65456628	1.0950765	-0.25652756	-0.48202321	1.0229127	0.19623084	-0.61587759	0.86986305	-0.34093506	-0.24537088	0.93230653	0.18723594
126	0.5	-0.0076020622	0.12852214	-0.13872081	-0.66282346	0.03830563	-0.018801611	-0.13542727	0.090335741	-0.17599376	-0.80139816	0.061457823	0.017904174	-0.14236042	0.11889136	-0.095567906	-0.77854203	0.088515733	-0.065604054	-0.17772232	0.032877827	-0.13508822	-0.85433184	0.044080625	-0.031890993	-0.29322497	0.44455645	-0.20001223	-0.63484387	0.43312682	0.065717814	-0.29165831	0.42395673	-0.080094503	-0.61724363	0.43499196	-0.063395457	-0.4265981	0.81043474	-0.24729824	-0.53884956	0.83003745	0.12841284	-0.39629569	0.9205861	-0.17015538	-0.43927144	0.92074993	0.069506018	-0.60819911	0.93471473	-0.079200584	-0.49481551	1.3928952	-0.1967431	-0.49601853	1.3771069	0.12487446	-0.57903699	1.410837	-0.038219093	-0.64955246	1.0942509	-0.25655804	-0.47485596	1.0212715	0.19626631	-0.61210026	0.86878701	-0.34167807	-0.23674236	0.93311286	0.18644553
127	0.504	-0.00020250973	0.12728181	-0.13800627	-0.66275638	0.038278911	-0.018857988	-0.12804335	0.089524445	-0.17550361	-0.80132038	0.062250826	0.017388707	-0.13531577	0.11792175	-0.095192524	-0.77784121	0.088947742	-0.066102427	-0.17060922	0.032068373	-0.13470116	-0.85406873	0.045232872	-0.032699151	-0.2850897	0.44460924	-0.19976887	-0.63050428	0.43187923	0.064915202	-0.28454672	0.42362536	-0.079659491	-0.61210687	0.43359168	-0.063932301	-0.41924364	0.8084628	-0.24686643	-0.53493757	0.82887217	0.12839061	-0.39020176	0.9189301	-0.16995099	-0.43441645	0.91944103	0.069963929	-0.60203136	0.93362409	-0.079616456	-0.48856661	1.3913096	-0.1967895	-0.48989811	1.3754687	0.12467762	-0.57310358	1.4092595	-0.038408215	-0.644491	1.0934311	-0.25659722	-0.46760689	1.0196418	0.1960069	-0.60798176	0.86764664	-0.34255736	-0.22822359	0.93387552	0.18563803
128	0.508	0.0065540438	0.12539061	-0.13742644	-0.66266055	0.038220042	-0.018934585	-0.1213715	0.088404413	-0.1750309	-0.80119492	0.063133506	0.016875004	-0.12882312	0.11667606	-0.094774494	-0.7770584	0.089412011	-0.066619667	-0.16436533	0.031083193	-0.13432816	-0.85381147	0.046509935	-0.033434272	-0.27601251	0.44458993	-0.19899909	-0.6261202	0.43059889	0.064061746	-0.27713774	0.42339027	-0.079224143	-0.60681722	0.43214169	-0.064504082	-0.41174783	0.80667528	-0.2463991	-0.53027936	0.82767612	0.12762748	-0.38405816	0.91725323	-0.16980668	-0.42952554	0.91809425	0.0704379	-0.59586416	0.93253447	-0.080031175	-0.48228615	1.3897376	-0.19686477	-0.48372867	1.3738482	0.12443053	-0.56712818	1.4077106	-0.038622118	-0.63938796	1.092617	-0.25662104	-0.46036746	1.0180493	0.19558692	-0.60380979	0.86659041	-0.34334097	-0.21983924	0.93460673	0.18482412
129	0.512	0.012694992	0.12292643	-0.13697338	-0.66253055	0.038138703	-0.019034237	-0.11538299	0.086995577	-0.1745715	-0.80093766	0.064080471	0.016363796	-0.12279385	0.1152091	-0.094270451	-0.77619393	0.089924025	-0.067128167	-0.15892821	0.029908538	-0.13393714	-0.85355124	0.047904758	-0.034043563	-0.26643407	0.44445171	-0.1978711	-0.62169171	0.42930405	0.06316545	-0.26944075	0.42321531	-0.07880785	-0.60138205	0.4306319	-0.06510423	-0.40423192	0.80511527	-0.24596042	-0.52509008	0.82636536	0.12645247	-0.37786287	0.91558823	-0.16957753	-0.42459089	0.9167058	0.070913632	-0.58969707	0.93144508	-0.080445634	-0.47599789	1.3881841	-0.19698088	-0.47750249	1.372256	0.12412495	-0.56111307	1.4061973	-0.03885797	-0.63422919	1.0918036	-0.25656864	-0.45312357	1.0164798	0.19507319	-0.59980466	0.86572131	-0.34382978	-0.21159439	0.9353082	0.18400597
130	0.516	0.018268465	0.11999105	-0.13662705	-0.66235461	0.03804822	-0.019164131	-0.11003899	0.085325829	-0.17412397	-0.80052716	0.065095998	0.015873214	-0.11726093	0.11351097	-0.093732065	-0.77525496	0.090498778	-0.067616235	-0.15423874	0.028551342	-0.13349858	-0.85328335	0.049422993	-0.034525517	-0.25693151	0.44419849	-0.19668551	-0.61719179	0.42801747	0.062230073	-0.2614742	0.42307881	-0.078423867	-0.5958244	0.42906879	-0.065726702	-0.39675196	0.80380574	-0.24561386	-0.51965277	0.82492658	0.12520311	-0.37167402	0.91398585	-0.1692079	-0.41956654	0.91529048	0.071368603	-0.58352991	0.93035556	-0.080860209	-0.46970651	1.3866595	-0.19715385	-0.47120687	1.3707035	0.12375932	-0.55506049	1.4047216	-0.03912035	-0.62899915	1.0909845	-0.25639397	-0.44584133	1.0149082	0.19448463	-0.595976	0.86503532	-0.34398721	-0.20348304	0.93597534	0.18317797
131	0.52	0.023326569	0.11667894	-0.13635488	-0.66211667	0.037966891	-0.01931998	-0.1052918	0.083432416	-0.17368836	-0.79998243	0.066200264	0.015431754	-0.11230504	0.11155269	-0.0932468	-0.77424634	0.091147408	-0.068081679	-0.15025184	0.027043035	-0.13300761	-0.85301604	0.051066193	-0.034890289	-0.24783536	0.44384623	-0.19563289	-0.61259664	0.42675515	0.061274512	-0.25327015	0.4229738	-0.078075936	-0.59014735	0.42746857	-0.066364508	-0.38931925	0.80273846	-0.24539852	-0.51412694	0.82339954	0.12403347	-0.36559428	0.91249584	-0.16864504	-0.41442252	0.91386804	0.071787175	-0.57736268	0.92926592	-0.081274929	-0.46337942	1.3851761	-0.19738437	-0.46483359	1.3692007	0.12334049	-0.54897223	1.403284	-0.039415779	-0.6237118	1.0901743	-0.25615476	-0.43854485	1.013335	0.19382317	-0.59214994	0.86443909	-0.34396736	-0.1954959	0.9366094	0.18233765
